Coordinates
version=1
nRows=22
nColumns=24
inDegrees=yes

Units are S.I. units (second, meters, Newtons, ...)
If the header above contains a line with 'inDegrees', this indicates whether rotational values are in degrees (yes) or radians (no).

endheader
time	pelvis_tilt	pelvis_list	pelvis_rotation	pelvis_tx	pelvis_ty	pelvis_tz	hip_flexion_r	hip_adduction_r	hip_rotation_r	knee_angle_r	ankle_angle_r	subtalar_angle_r	mtp_angle_r	hip_flexion_l	hip_adduction_l	hip_rotation_l	knee_angle_l	ankle_angle_l	subtalar_angle_l	mtp_angle_l	lumbar_extension	lumbar_bending	lumbar_rotation
      2.82500000	     13.20477096	      5.54890251	     -1.80670686	      1.07116016	      0.92371769	     -0.27774880	      5.76228205	    -11.24465343	    -10.26030178	    -65.48699771	      4.50754690	      0.00000000	      0.00000000	     -3.50841647	     11.45929529	     -1.11408366	    -19.59722075	     10.46845872	      0.00000000	      0.00000000	    -19.49471736	     -9.09986961	     -1.98502047
      2.83000000	     13.13367061	      5.44883573	     -1.47640745	      1.07778272	      0.92477888	     -0.27817862	      6.44904888	    -10.96248563	    -10.35387102	    -64.72929893	      4.95223895	      0.00000000	      0.00000000	     -4.28701301	     11.34245052	     -0.68762661	    -18.95482397	     10.55624110	      0.00000000	      0.00000000	    -19.45228976	     -8.87072023	     -2.18457127
      2.83500000	     13.06743431	      5.33129350	     -1.04551791	      1.08453855	      0.92585641	     -0.27854920	      7.03752711	    -10.64638967	    -10.55577071	    -63.85242458	      5.46278419	      0.00000000	      0.00000000	     -5.08931769	     11.15099228	     -0.28923593	    -18.30480621	     10.62131695	      0.00000000	      0.00000000	    -19.37978421	     -8.63058598	     -2.45034698
      2.84000000	     13.17718581	      5.07243428	     -0.29247999	      1.09107646	      0.92723746	     -0.27918706	      7.21751465	    -10.19896127	    -11.17091545	    -62.68826555	      6.08679840	      0.00000000	      0.00000000	     -6.00579119	     10.74474671	      0.37688441	    -17.82747378	     10.58535907	      0.00000000	      0.00000000	    -19.63349318	     -8.16212046	     -3.31400620
      2.84500000	     13.09333386	      5.03551939	     -0.00868763	      1.09779225	      0.92808359	     -0.27953341	      7.84600222	    -10.00013127	    -11.23517425	    -61.69937937	      6.39423025	      0.00000000	      0.00000000	     -6.79682706	     10.65966066	      0.70691121	    -17.12206015	     10.72745805	      0.00000000	      0.00000000	    -19.50481313	     -8.05253044	     -3.54697137
      2.85000000	     13.23530789	      4.83299460	      0.65552889	      1.10432284	      0.92932853	     -0.28008282	      7.97974427	     -9.61636023	    -11.74386079	    -60.40582408	      6.82264276	      0.00000000	      0.00000000	     -7.77152256	     10.29563387	      1.30801486	    -16.55419441	     10.72870053	      0.00000000	      0.00000000	    -19.77354856	     -7.67983028	     -4.51067930
      2.85500000	     13.14758182	      4.72770803	      0.99338366	      1.11105642	      0.93010425	     -0.28046920	      8.49611786	     -9.34657692	    -11.89456180	    -59.17531979	      7.23966673	      0.00000000	      0.00000000	     -8.53242949	     10.10051325	      1.64076548	    -15.89335756	     10.74703329	      0.00000000	      0.00000000	    -19.64954410	     -7.46631805	     -4.79574086
      2.86000000	     13.02124476	      4.70841121	      1.31099011	      1.11750777	      0.93063873	     -0.28066299	      9.10589626	     -9.13769007	    -11.92798973	    -57.97119423	      7.49347483	      0.00000000	      0.00000000	     -9.21627427	      9.98199243	      1.97311353	    -15.24376379	     10.85116499	      0.00000000	      0.00000000	    -19.55037712	     -7.42298626	     -4.95074452
      2.86500000	     13.02450786	      4.50057560	      1.91677691	      1.12412077	      0.93150853	     -0.28114108	      9.32129360	     -8.75248875	    -12.37150661	    -56.43595642	      7.79570365	      0.00000000	      0.00000000	    -10.02007996	      9.58053427	      2.47064368	    -14.67867765	     10.80190269	      0.00000000	      0.00000000	    -19.61266157	     -7.00999590	     -5.61925679
      2.87000000	     12.89248080	      4.51498235	      2.16778537	      1.13064723	      0.93185701	     -0.28134260	      9.87874948	     -8.60507633	    -12.36936419	    -55.07558760	      8.03282913	      0.00000000	      0.00000000	    -10.70520287	      9.50374249	      2.78640413	    -14.02352470	     10.90407044	      0.00000000	      0.00000000	    -19.43973663	     -7.00209532	     -5.78738839
      2.87500000	     12.74066355	      4.46980087	      2.49613995	      1.13718310	      0.93217959	     -0.28150879	     10.38214432	     -8.38664901	    -12.45212854	    -53.58945774	      8.27232530	      0.00000000	      0.00000000	    -11.35791160	      9.32498618	      3.10107140	    -13.36759597	     10.93108605	      0.00000000	      0.00000000	    -19.30662267	     -6.90727670	     -6.00448600
      2.88000000	     12.59063953	      4.43359024	      2.81860886	      1.14360355	      0.93239595	     -0.28167022	     10.86305766	     -8.18261019	    -12.52473435	    -52.03420371	      8.45822515	      0.00000000	      0.00000000	    -11.98084277	      9.15337242	      3.41546632	    -12.76712152	     10.95481056	      0.00000000	      0.00000000	    -19.19007682	     -6.85497850	     -6.21796844
      2.88500000	     12.43299481	      4.38897259	      3.16998683	      1.15016766	      0.93258830	     -0.28183307	     11.27809140	     -7.96881644	    -12.62133582	    -50.36428918	      8.62038019	      0.00000000	      0.00000000	    -12.62091323	      8.95191000	      3.74120431	    -12.12778795	     10.95906380	      0.00000000	      0.00000000	    -19.02322198	     -6.74541071	     -6.48347994
      2.89000000	     12.57540857	      4.18690884	      3.80249603	      1.15653757	      0.93326693	     -0.28237044	     11.15610880	     -7.63463995	    -13.14942924	    -48.39107701	      8.64625235	      0.00000000	      0.00000000	    -13.51920173	      8.48589858	      4.26424205	    -11.59778845	     10.86536539	      0.00000000	      0.00000000	    -19.31756139	     -6.31304613	     -7.69970170
      2.89500000	     12.38179306	      4.26137056	      3.99243536	      1.16286589	      0.93308924	     -0.28237587	     11.66394039	     -7.56660617	    -13.08242620	    -46.72089019	      8.75203746	      0.00000000	      0.00000000	    -14.07133848	      8.44588847	      4.47862720	    -11.01877674	     10.92191763	      0.00000000	      0.00000000	    -19.14612908	     -6.42201513	     -7.77465423
      2.90000000	     12.18281787	      4.14912096	      4.34318784	      1.16942406	      0.93307240	     -0.28254384	     11.99331786	     -7.29078649	    -13.19338242	    -44.77035019	      8.75358844	      0.00000000	      0.00000000	    -14.62203717	      8.15088556	      4.71367953	    -10.42881892	     10.81454224	      0.00000000	      0.00000000	    -18.93829314	     -6.19590747	     -8.05619075
      2.90500000	     11.99581538	      4.28884130	      4.52560322	      1.17552993	      0.93269666	     -0.28241181	     12.45948752	     -7.28776709	    -13.08570689	    -43.01567360	      8.79542333	      0.00000000	      0.00000000	    -15.12059308	      8.16669512	      4.90216552	     -9.95041932	     10.90832455	      0.00000000	      0.00000000	    -18.83946532	     -6.44646412	     -8.12751588
      2.91000000	     11.77879020	      4.37607869	      4.72391154	      1.18183916	      0.93230709	     -0.28237998	     12.86983065	     -7.23778356	    -13.00689674	    -41.13137595	      8.80725896	      0.00000000	      0.00000000	    -15.63064628	      8.12554236	      5.07749667	     -9.39762284	     10.94893977	      0.00000000	      0.00000000	    -18.65127312	     -6.56632822	     -8.24704446
      2.91500000	     11.59425822	      4.16339401	      5.13921712	      1.18854948	      0.93223442	     -0.28272378	     12.99386164	     -6.89286127	    -13.26465926	    -38.86299282	      8.51895676	      0.00000000	      0.00000000	    -16.18981870	      7.69585902	      5.27695196	     -8.80549001	     10.80211809	      0.00000000	      0.00000000	    -18.46546920	     -6.13332141	     -8.82804001
      2.92000000	     11.38679588	      4.35145705	      5.27790141	      1.19465080	      0.93159115	     -0.28254385	     13.39342770	     -6.95512829	    -13.10768867	    -36.96874711	      8.51814979	      0.00000000	      0.00000000	    -16.65076250	      7.76914537	      5.38317731	     -8.36882551	     10.88762730	      0.00000000	      0.00000000	    -18.35472448	     -6.43204078	     -8.89323120
      2.92500000	     11.11996237	      4.36858498	      5.44244923	      1.20122721	      0.93100595	     -0.28263729	     13.71971680	     -6.85427486	    -13.05063452	    -34.86490048	      8.34379244	      0.00000000	      0.00000000	    -17.13572636	      7.67367553	      5.45310075	     -7.77156650	     10.87167186	      0.00000000	      0.00000000	    -18.09157532	     -6.40501060	     -9.08627714
      2.93000000	     10.90864642	      4.53502212	      5.60885542	      1.20726186	      0.93027746	     -0.28243270	     14.03278462	     -6.88876842	    -12.88952481	    -32.82959747	      8.22479163	      0.00000000	      0.00000000	    -17.51973604	      7.71119714	      5.47856767	     -7.45280201	     10.91171019	      0.00000000	      0.00000000	    -17.98059392	     -6.65746488	     -9.16326413
